<svg width="31" height="16" xmlns="http://www.w3.org/2000/svg"><g fill="none" fill-rule="evenodd"><path d="M11.019 15.333l-.854-2.453H4.47l-.853 2.453H.757L6.155.4h2.453l5.376 14.933h-2.965zM7.307 4.667L5.28 10.49h4.075L7.349 4.667h-.042zM22.165 12.667h1.984c.512 0 .96-.06 1.344-.182.384-.12.747-.345 1.088-.672.342-.327.605-.821.79-1.482.185-.662.277-1.49.277-2.486 0-1.664-.31-2.876-.928-3.637-.619-.76-1.433-1.141-2.443-1.141h-2.112v9.6zm-2.88 2.666V.4h4.992c.854 0 1.657.15 2.411.448.754.299 1.436.74 2.048 1.323.612.583 1.099 1.361 1.461 2.336.363.974.544 2.087.544 3.338 0 1.366-.185 2.553-.554 3.563-.37 1.01-.875 1.788-1.515 2.336-.64.548-1.333.95-2.08 1.205a7.487 7.487 0 0 1-2.443.384h-4.864z" fill="#252B33"/><path fill="#F67979" d="M14.477 15.333v-3.029h3.179v3.03z"/></g></svg>
