<svg width="30" height="30" viewBox="0 0 30 30" fill="none" xmlns="http://www.w3.org/2000/svg">
  <style>
    @media (prefers-color-scheme: light) {
      .a {
        fill: black;
      }
    }
  </style>
<path class="a" d="M22.2128 7C23.5667 7 24.6675 7.15727 25.5154 7.4718C26.3633 7.78633 26.9992 8.31967 27.4231 9.07181C27.8607 9.82396 28.0795 10.8428 28.0795 12.1283C28.0795 12.7983 28.018 13.5642 27.8949 14.4257C27.6077 16.395 27.2043 17.8856 26.6847 18.8976C26.165 19.9095 25.4402 20.607 24.5103 20.9899C23.594 21.3728 22.3154 21.5642 20.6743 21.5642C18.7324 21.5642 16.77 21.4959 14.7871 21.3591L16.7769 7.20513C18.4589 7.06838 20.2709 7 22.2128 7ZM23.8539 14.1385C23.9906 13.0855 24.059 12.3265 24.059 11.8616C24.059 11.0821 23.9154 10.5556 23.6282 10.2821C23.341 10.0086 22.8282 9.87182 22.0897 9.87182H20.2436L19.0128 18.6514C19.3683 18.6651 19.9085 18.6719 20.6333 18.6719C21.3034 18.6719 21.8367 18.5557 22.2333 18.3232C22.6299 18.0907 22.9581 17.6531 23.218 17.0104C23.4778 16.3676 23.6898 15.4103 23.8539 14.1385Z" fill="#FF302B"/>
<path class="a" d="M11.7603 17.9239H7.43201L6.13969 21.2265H2.11914L7.80125 7.99559C7.92432 7.69473 8.1021 7.46909 8.33458 7.31866C8.58074 7.15455 8.86109 7.0725 9.17562 7.0725H12.7039C13.0184 7.0725 13.2919 7.17507 13.5244 7.3802C13.7705 7.58533 13.9073 7.83832 13.9346 8.13918L15.9449 21.2265H12.0885L11.7603 17.9239ZM11.4526 15.011L11.0833 11.4007C11.0423 11.0725 11.0218 10.5802 11.0218 9.92381H10.4269C10.3038 10.4298 10.1602 10.9153 9.99614 11.3802L8.58074 15.011H11.4526Z" fill="white"/>
<path class="a" d="M19.1873 17.7393C19.5838 17.7393 19.8915 17.835 20.1103 18.0265C20.3291 18.2042 20.4385 18.4709 20.4385 18.8265C20.4385 18.9495 20.4317 19.0453 20.418 19.1136L20.295 20.0162C20.2403 20.4265 20.1035 20.7342 19.8847 20.9393C19.6659 21.1308 19.3308 21.2265 18.8796 21.2265H18.0795C17.6693 21.2265 17.3548 21.1308 17.1359 20.9393C16.9308 20.7478 16.8283 20.4743 16.8283 20.1188C16.8283 20.0094 16.8351 19.9273 16.8488 19.8726L16.9718 18.9495C17.0265 18.5256 17.1701 18.2179 17.4026 18.0265C17.6351 17.835 17.9701 17.7393 18.4078 17.7393H19.1873Z" fill="white"/>
<path d="M3.04223 23.2778H21.7719V24.3034H3.04223V23.2778Z" fill="white"/>
</svg>
