<?xml version="1.0" standalone="no"?>
<!DOCTYPE svg PUBLIC "-//W3C//DTD SVG 20010904//EN"
 "http://www.w3.org/TR/2001/REC-SVG-20010904/DTD/svg10.dtd">
<svg version="1.0" xmlns="http://www.w3.org/2000/svg"
 width="992.000000pt" height="992.000000pt" viewBox="0 0 992.000000 992.000000"
 preserveAspectRatio="xMidYMid meet">
<metadata>
Created by potrace 1.11, written by Peter Selinger 2001-2013
</metadata>
<g transform="translate(0.000000,992.000000) scale(0.100000,-0.100000)"
fill="#000000" stroke="none">
<path d="M1992 7392 c-14 -2 -27 -14 -33 -30 -5 -15 -12 -34 -16 -42 -3 -8 -7
-19 -8 -25 -2 -5 -28 -77 -58 -160 -30 -82 -58 -161 -62 -175 -4 -14 -13 -38
-20 -55 -7 -16 -28 -70 -45 -120 -17 -49 -34 -97 -37 -105 -3 -8 -7 -19 -9
-25 -8 -26 -65 -182 -73 -200 -5 -11 -16 -40 -24 -65 -9 -25 -30 -83 -47 -130
-17 -47 -36 -98 -41 -115 -5 -16 -13 -39 -18 -50 -5 -11 -44 -117 -86 -235
-41 -118 -80 -224 -85 -235 -5 -11 -24 -65 -44 -120 -42 -120 -90 -255 -186
-515 -39 -107 -72 -199 -73 -205 -3 -10 -23 -65 -37 -100 -7 -17 -31 -88 -35
-105 -1 -3 -5 -12 -8 -20 -13 -30 -59 -156 -73 -200 -14 -42 -46 -128 -65
-175 -4 -11 -40 -110 -79 -220 -39 -110 -74 -207 -77 -215 -3 -8 -7 -19 -9
-25 -1 -5 -30 -86 -64 -180 -34 -93 -89 -244 -122 -335 -33 -91 -74 -205 -93
-255 -18 -49 -39 -108 -45 -130 -7 -22 -15 -44 -18 -50 -10 -16 -52 -139 -52
-151 0 -14 895 -13 908 1 5 6 24 55 42 110 18 55 35 105 39 110 3 6 6 12 7 15
4 20 18 67 23 75 3 6 6 15 7 20 2 6 21 62 44 125 23 63 43 122 45 130 2 8 17
54 35 101 l31 87 903 0 c497 0 908 -3 914 -7 7 -4 20 -34 31 -66 11 -33 43
-125 71 -205 49 -139 83 -239 84 -250 1 -3 4 -9 7 -15 4 -5 12 -28 18 -50 7
-22 16 -49 21 -60 4 -11 13 -36 20 -55 29 -85 -28 -76 501 -76 495 0 484 -1
459 44 -5 9 -19 46 -30 82 -12 36 -25 74 -31 85 -9 20 -56 151 -110 305 -16
47 -32 92 -36 100 -3 8 -7 18 -7 22 -1 3 -4 10 -8 14 -5 4 -8 14 -8 21 0 8
-11 42 -24 76 -13 34 -52 141 -86 237 -34 96 -66 186 -72 200 -6 14 -12 30
-14 35 -1 6 -11 35 -22 65 -12 30 -55 152 -98 270 -42 118 -88 244 -101 280
-13 36 -25 70 -27 75 -2 6 -6 18 -10 27 -4 9 -9 22 -10 30 -2 7 -8 26 -14 41
-7 15 -15 39 -18 53 -3 13 -10 27 -15 30 -5 3 -9 13 -9 22 0 10 -14 53 -31 97
-17 44 -32 85 -33 90 -3 12 -15 43 -26 70 -5 11 -18 47 -29 80 -30 89 -59 174
-80 230 -11 28 -22 59 -27 70 -4 11 -8 26 -10 34 -1 7 -7 18 -13 24 -6 6 -11
22 -11 36 0 15 -7 35 -15 45 -8 11 -15 29 -15 41 0 12 -4 25 -9 31 -4 5 -22
50 -39 99 -17 50 -45 128 -62 175 -18 47 -35 96 -40 110 -9 30 -106 299 -125
350 -8 19 -55 150 -105 290 -50 140 -97 271 -104 290 -16 40 -49 133 -96 265
-18 50 -40 113 -50 140 -10 28 -21 60 -25 73 -3 12 -14 22 -23 23 -84 2 -732
3 -750 1z m369 -1397 c-1 0 7 -25 19 -55 12 -30 24 -62 25 -70 2 -8 4 -15 4
-15 1 0 101 -285 105 -300 2 -5 6 -17 9 -25 3 -8 13 -35 21 -60 8 -25 56 -164
106 -310 50 -146 98 -285 106 -310 8 -25 18 -52 21 -60 9 -24 144 -414 147
-425 2 -5 6 -17 9 -25 14 -37 57 -167 57 -171 0 -3 -292 -5 -650 -5 -357 0
-650 1 -650 2 0 1 18 53 41 116 22 62 42 121 44 131 2 9 7 23 12 30 4 6 8 14
8 17 1 3 9 30 20 60 11 30 20 57 20 60 2 12 48 146 54 155 3 6 6 15 8 20 1 6
25 75 53 155 28 80 62 177 75 215 13 39 58 169 100 290 42 121 77 225 78 230
1 6 4 12 7 15 8 8 85 243 83 252 -2 4 2 8 8 8 5 0 8 4 4 9 -3 5 -1 12 5 16 5
3 10 12 10 20 0 8 5 26 11 42 10 27 11 27 22 8 6 -11 10 -20 8 -20z"/>
<path d="M6174 7389 c-2 -3 -3 -1077 -3 -2387 0 -1867 2 -2381 12 -2385 6 -2
28 -3 47 -1 32 2 164 9 370 20 328 17 444 23 555 29 50 3 135 7 190 10 164 8
284 14 385 20 52 3 138 8 190 10 52 3 133 7 180 10 47 2 140 7 206 10 158 7
200 12 243 27 20 7 38 13 41 13 22 3 261 124 281 141 8 8 20 14 25 14 10 0
184 122 239 167 82 68 225 216 225 233 0 6 3 10 8 10 4 0 18 18 32 40 14 22
28 40 32 40 5 0 8 7 8 15 0 8 5 15 10 15 6 0 10 5 10 11 0 6 8 23 19 37 19 28
97 179 125 242 68 157 138 380 162 520 2 14 9 48 14 75 11 51 14 77 25 175 4
30 9 66 11 80 9 59 18 258 18 425 0 225 -13 409 -39 560 -28 158 -51 263 -76
340 -29 94 -73 221 -79 230 -3 6 -15 33 -25 60 -23 62 -117 245 -156 303 -16
24 -29 45 -29 48 0 4 -88 119 -125 162 -46 54 -104 112 -160 162 -33 29 -71
62 -85 74 -68 60 -276 196 -298 196 -6 0 -12 4 -14 9 -5 15 -247 117 -353 149
-174 54 -305 77 -495 88 -138 8 -1721 11 -1726 3z m1761 -862 c17 -4 44 -9 60
-11 43 -7 168 -46 180 -57 5 -5 17 -9 27 -9 10 0 18 -4 18 -10 0 -5 9 -10 20
-10 11 0 20 -4 20 -10 0 -5 5 -10 10 -10 14 0 87 -48 130 -85 151 -131 268
-299 324 -470 9 -28 19 -57 23 -65 3 -8 7 -19 8 -25 2 -5 10 -37 19 -70 9 -33
19 -73 21 -90 3 -16 7 -41 9 -55 22 -134 28 -176 31 -247 2 -45 5 -85 7 -90 6
-11 1 -462 -6 -538 -5 -58 -11 -105 -22 -190 -3 -22 -12 -74 -20 -115 -9 -41
-18 -86 -20 -100 -25 -127 -125 -353 -199 -450 -118 -154 -313 -278 -495 -315
-8 -2 -15 -4 -15 -5 0 -1 -24 -6 -80 -14 -95 -15 -217 -19 -535 -20 l-355 0
-1 1537 -1 1537 406 -4 c223 -2 420 -6 436 -9z"/>
<path d="M4637 3575 c-2 -5 -4 -224 -3 -485 l1 -475 508 -1 507 0 -2 484 -3
485 -502 1 c-327 1 -504 -2 -506 -9z"/>
</g>
</svg>
